<?xml version="1.0" encoding="UTF-8"?>
<!DOCTYPE svg PUBLIC "-//W3C//DTD SVG 1.1//EN" "http://www.w3.org/Graphics/SVG/1.1/DTD/svg11.dtd">
<!-- Creator: CorelDRAW X8 -->
<svg xmlns="http://www.w3.org/2000/svg" xml:space="preserve" width="299px" height="66px" version="1.1" style="shape-rendering:geometricPrecision; text-rendering:geometricPrecision; image-rendering:optimizeQuality; fill-rule:evenodd; clip-rule:evenodd"
viewBox="0 0 299 66"
 xmlns:xlink="http://www.w3.org/1999/xlink">
 <defs>
  <style type="text/css">
   <![CDATA[
    .fil1 {fill:#0C4E70}
    .fil0 {fill:#0E89C8}
   ]]>
  </style>
 </defs>
 <g id="Слой_x0020_1">
  <metadata id="CorelCorpID_0Corel-Layer"/>
  <path class="fil0" d="M152 4c-2,8 -3,15 -5,22 -1,3 -1,8 -2,11 -1,1 -5,5 -7,6 -2,1 -4,1 -6,1 -2,0 -3,-1 -4,-3 -1,-5 2,-16 6,-20 2,-2 3,-3 4,-1 1,2 0,4 0,6 2,0 3,1 5,-1 2,-3 1,-11 -9,-9 -11,2 -17,16 -15,25 1,10 12,10 18,7 1,-1 2,-2 4,-3 1,-1 2,-2 3,-4 0,3 0,5 2,6 4,4 11,2 15,-2 0,-1 0,-1 1,-1 0,2 1,3 2,4 2,1 4,2 6,1 4,0 7,-3 8,-6l1 2c0,1 0,2 2,3 2,2 8,1 11,-1 1,-1 2,-2 3,-3 2,6 8,6 14,5 10,-3 15,-18 12,-27 0,-3 -2,-5 -4,-6 -3,-1 -6,1 -8,2l3 -15 -10 1c0,5 -2,13 -3,18 -1,3 -3,15 -4,17 -1,2 -2,3 -3,3 -1,1 -3,1 -4,1 -2,-2 0,-7 0,-9 1,-3 4,-16 4,-18l-9 0c-1,2 -3,12 -3,15 -1,4 -2,10 -5,12 -4,1 -4,-2 -4,-5 1,-2 1,-5 2,-7 0,-3 3,-13 3,-15l-9 0c-1,2 -4,15 -4,18 -1,4 -3,10 -8,9 -2,0 -2,-2 -1,-4 0,-3 3,-14 3,-18 2,-5 4,-14 4,-18l-9 1zm58 17c-3,0 -2,1 -3,5 0,2 -3,12 -3,14 0,3 4,3 5,3 4,-2 7,-13 6,-19 -1,-2 -2,-4 -5,-3z"/>
  <path class="fil0" d="M64 65l0 0c1,0 8,-2 10,-2l3 -16c1,1 1,2 3,2 3,1 8,0 11,-2 3,-3 6,-7 7,-12 2,-7 2,-20 -8,-19 -1,0 -3,0 -4,1 -1,0 -2,1 -3,1l1 -4c-2,0 -8,0 -9,0 -1,1 -3,13 -4,15 0,5 -1,12 -5,14 -1,0 -5,1 -4,-4l3 -15c1,-2 2,-6 2,-8l-10 0c-1,5 -2,10 -3,15 -1,4 -1,11 -5,12 -4,1 -4,-3 -3,-5 1,-3 4,-21 4,-22l-9 0c-1,4 -2,9 -3,13 0,3 -2,9 -2,13 0,8 8,9 13,5 2,-1 3,-3 4,-4 0,2 0,6 6,6 5,0 6,-1 9,-3l-4 19zm22 -44c-3,0 -4,2 -4,4l-3 15c-1,1 -1,2 0,3 0,1 2,1 3,1 4,-1 6,-7 7,-11 1,-4 2,-13 -3,-12z"/>
  <path class="fil0" d="M1 38l0 2c0,1 0,3 1,4 3,7 14,7 20,5 4,-1 7,-4 9,-7 2,-3 3,-8 2,-13 -1,-3 -3,-5 -5,-7l-4 -4c-9,-7 -6,-17 2,-15 4,1 4,5 3,8 -1,1 -1,1 -1,1l-1 1c3,3 9,1 8,-7 -2,-9 -18,-8 -24,-1 -3,5 -2,10 1,14 1,1 3,4 4,4 4,4 9,13 5,19 -2,4 -9,5 -11,0 -3,-4 -1,-9 6,-9 0,-6 -9,-6 -13,0 -2,2 -1,4 -2,5z"/>
  <path class="fil1" d="M298 37l0 0 -3 0c-1,3 -2,6 -6,6 -4,0 -2,-5 -1,-8 1,-3 4,-17 4,-19l-9 0c-1,2 -3,12 -4,15 0,4 -1,11 -5,12 -4,1 -3,-3 -3,-5 1,-3 1,-5 2,-7 0,-2 3,-14 3,-15l-10 0 -2 13c-2,6 -7,21 5,20 6,0 7,-4 9,-6 1,3 2,5 4,6 2,1 6,0 8,-1 5,-3 7,-9 8,-11z"/>
  <path class="fil1" d="M235 49l9 0c2,-6 4,-16 5,-23 1,-2 1,-2 2,-3 1,-1 2,-2 4,-1 0,1 0,2 1,3 2,3 9,-1 6,-6 0,-2 -3,-3 -6,-3 -2,1 -4,3 -6,4l1 -4 -9 0 -7 33z"/>
  <path class="fil1" d="M226 39c-7,2 -4,12 3,10 6,-2 3,-12 -3,-10z"/>
  <path class="fil0" d="M102 34l13 0 1 -5 -13 0c-1,0 -1,5 -1,5z"/>
 </g>
</svg>
